<svg xmlns="http://www.w3.org/2000/svg" viewBox="0 0 116.84 28.86"><defs><style>.cls-1{fill:#0c2e8a;}.cls-2{fill:none;stroke:#0c2e8a;stroke-miterlimit:10;}.cls-3{fill:#fff;}</style></defs><g id="Layer_2" data-name="Layer 2"><circle class="cls-1" cx="14.43" cy="14.43" r="3.33"/><circle class="cls-1" cx="5.87" cy="14.43" r="1.89"/><circle class="cls-1" cx="20.37" cy="8.58" r="1.89"/><circle class="cls-2" cx="14.43" cy="14.43" r="8.45"/><circle class="cls-2" cx="14.43" cy="14.43" r="13.93"/><line class="cls-2" x1="14.43" y1="0.5" x2="14.43" y2="28.36"/><line class="cls-2" x1="0.5" y1="14.43" x2="28.36" y2="14.43"/></g><g id="Layer_4" data-name="Layer 4"><rect class="cls-1" x="87.89" y="4.82" width="28.96" height="19.62"/></g><g id="Layer_3" data-name="Layer 3"><path class="cls-1" d="M35,10h1.58V21.26H35Zm.82,5.38h3.6a1.62,1.62,0,0,0,.89-.24,1.53,1.53,0,0,0,.6-.68,2.45,2.45,0,0,0,0-2,1.57,1.57,0,0,0-1.49-.93h-3.6V10h3.54a3.52,3.52,0,0,1,1.77.43,3,3,0,0,1,1.19,1.21,3.75,3.75,0,0,1,.42,1.81,3.75,3.75,0,0,1-.42,1.81,2.93,2.93,0,0,1-1.19,1.2,3.62,3.62,0,0,1-1.77.43H35.81Z" transform="translate(-1.16 -0.56)"/><path class="cls-1" d="M44.32,13.23H45.9v8H44.32Zm3.89,1.51a2,2,0,0,0-.73-.13,1.44,1.44,0,0,0-1.58,1.57l-.16-1.55a2.94,2.94,0,0,1,1-1.12,2.22,2.22,0,0,1,1.3-.4,2.82,2.82,0,0,1,1,.16,2.2,2.2,0,0,1,.78.47l-1,1.39A1.31,1.31,0,0,0,48.21,14.74Z" transform="translate(-1.16 -0.56)"/><path class="cls-1" d="M52.32,21a2.82,2.82,0,0,1-1.21-1.23,4.32,4.32,0,0,1-.41-1.95v-.91a4.65,4.65,0,0,1,.4-2,2.84,2.84,0,0,1,1.15-1.29,3.65,3.65,0,0,1,1.83-.44,3,3,0,0,1,1.72.5,3.22,3.22,0,0,1,1.09,1.46,6.23,6.23,0,0,1,.37,2.28v.53H51.84V16.61h3.92a2.72,2.72,0,0,0-.51-1.53,1.42,1.42,0,0,0-1.17-.54,1.71,1.71,0,0,0-1.39.58,2.54,2.54,0,0,0-.49,1.67v1a2.07,2.07,0,0,0,.53,1.53,2,2,0,0,0,1.49.54,2.45,2.45,0,0,0,1-.2,2.79,2.79,0,0,0,.85-.54l1,1a4.1,4.1,0,0,1-1.34.88,3.77,3.77,0,0,1-1.49.32A4,4,0,0,1,52.32,21Z" transform="translate(-1.16 -0.56)"/><path class="cls-1" d="M60.79,21a2.82,2.82,0,0,1-1.18-1.19,4,4,0,0,1-.41-1.89V16.56a3.84,3.84,0,0,1,.41-1.86,2.74,2.74,0,0,1,1.18-1.18,4,4,0,0,1,1.88-.41,4.49,4.49,0,0,1,1.18.15,3.62,3.62,0,0,1,1,.44,2.57,2.57,0,0,1,.73.7l-1.13,1a2.44,2.44,0,0,0-.8-.6,2.26,2.26,0,0,0-.95-.21,1.91,1.91,0,0,0-1.42.51,1.94,1.94,0,0,0-.5,1.44v1.33a2,2,0,0,0,.5,1.47,1.89,1.89,0,0,0,1.42.52,2.19,2.19,0,0,0,1-.23,2.5,2.5,0,0,0,.79-.63l1.13,1.1a3,3,0,0,1-.74.68,3.67,3.67,0,0,1-1,.43,4.49,4.49,0,0,1-1.18.15A4,4,0,0,1,60.79,21Z" transform="translate(-1.16 -0.56)"/><path class="cls-1" d="M67.32,10H68.9v1.58H67.32Zm0,3.22H68.9v8H67.32Z" transform="translate(-1.16 -0.56)"/><path class="cls-1" d="M72.81,21.24a4.52,4.52,0,0,1-1.17-.42,4.87,4.87,0,0,1-1-.7L71.58,19a5.19,5.19,0,0,0,1.29.74,3.45,3.45,0,0,0,1.27.25,2.75,2.75,0,0,0,1.41-.29A1,1,0,0,0,76,18.8a.68.68,0,0,0-.26-.58,1.38,1.38,0,0,0-.63-.26c-.26,0-.61-.08-1.07-.12h-.39a6.18,6.18,0,0,1-1.32-.23,1.82,1.82,0,0,1-.9-.62,2.08,2.08,0,0,1-.36-1.31,2.69,2.69,0,0,1,.34-1.42,2.15,2.15,0,0,1,1-.85,4.78,4.78,0,0,1,1.73-.28,5.72,5.72,0,0,1,1.19.12,4.94,4.94,0,0,1,1.09.34,5.3,5.3,0,0,1,1,.58l-1,1.15a5.41,5.41,0,0,0-1.19-.58,3.58,3.58,0,0,0-1.14-.19A2.19,2.19,0,0,0,73,14.8a.94.94,0,0,0-.4.83.56.56,0,0,0,.23.49,1.47,1.47,0,0,0,.57.21,8.7,8.7,0,0,0,1,.09h.3a6.63,6.63,0,0,1,1.43.22,2,2,0,0,1,1,.67,2.31,2.31,0,0,1,.4,1.46,2.57,2.57,0,0,1-.37,1.44,2.23,2.23,0,0,1-1.12.85,5.3,5.3,0,0,1-1.88.29A6.24,6.24,0,0,1,72.81,21.24Z" transform="translate(-1.16 -0.56)"/><path class="cls-1" d="M80.91,21a2.82,2.82,0,0,1-1.21-1.23,4.32,4.32,0,0,1-.41-1.95v-.91a4.65,4.65,0,0,1,.4-2,2.86,2.86,0,0,1,1.16-1.29,3.58,3.58,0,0,1,1.82-.44,2.93,2.93,0,0,1,1.72.5,3.16,3.16,0,0,1,1.09,1.46,6.23,6.23,0,0,1,.37,2.28v.53H80.44V16.61h3.91a2.65,2.65,0,0,0-.5-1.53,1.46,1.46,0,0,0-1.18-.54,1.71,1.71,0,0,0-1.39.58,2.6,2.6,0,0,0-.49,1.67v1a2.07,2.07,0,0,0,.53,1.53,2,2,0,0,0,1.49.54,2.45,2.45,0,0,0,1-.2,2.79,2.79,0,0,0,.85-.54l1,1a4.32,4.32,0,0,1-1.34.88,3.85,3.85,0,0,1-1.5.32A4,4,0,0,1,80.91,21Z" transform="translate(-1.16 -0.56)"/><path class="cls-3" d="M100.13,15.2v2a4.89,4.89,0,0,1-.49,2.21,3.65,3.65,0,0,1-1.38,1.48,4.13,4.13,0,0,1-2.07.52,4.4,4.4,0,0,1-2.1-.49A3.44,3.44,0,0,1,92.7,19.5a4.27,4.27,0,0,1-.5-2.08V14.09a4.69,4.69,0,0,1,.49-2.2,3.47,3.47,0,0,1,1.38-1.48,4.13,4.13,0,0,1,2.07-.52,3.8,3.8,0,0,1,1.78.42,3.67,3.67,0,0,1,1.37,1.17,4.15,4.15,0,0,1,.74,1.76H98.32a2.42,2.42,0,0,0-.47-1,2.33,2.33,0,0,0-.78-.62,2.18,2.18,0,0,0-.93-.21,2.13,2.13,0,0,0-2,1.27,3.06,3.06,0,0,0-.29,1.39v3.33a2.73,2.73,0,0,0,.29,1.27,2.21,2.21,0,0,0,.84.85,2.47,2.47,0,0,0,1.24.3,2.34,2.34,0,0,0,1.22-.32,2,2,0,0,0,.81-.91,3.19,3.19,0,0,0,.29-1.41v-.49H96.23V15.2Z" transform="translate(-1.16 -0.56)"/><path class="cls-3" d="M104.11,21.26h-1.58V10h1.58Z" transform="translate(-1.16 -0.56)"/><path class="cls-3" d="M108.73,21.22a6,6,0,0,1-1.35-.46A5.75,5.75,0,0,1,106.2,20l1-1.2a4.4,4.4,0,0,0,1.41.83,4.86,4.86,0,0,0,1.68.28,3.4,3.4,0,0,0,1.9-.45,1.45,1.45,0,0,0,.67-1.28h0a1.37,1.37,0,0,0-.3-.93,1.87,1.87,0,0,0-.79-.51,8.41,8.41,0,0,0-1.25-.31h-.1l-.12,0a11.63,11.63,0,0,1-1.84-.44,2.54,2.54,0,0,1-1.21-.89,3,3,0,0,1-.5-1.83h0a3.32,3.32,0,0,1,.47-1.79,3,3,0,0,1,1.36-1.12,5.41,5.41,0,0,1,2.16-.39,5.86,5.86,0,0,1,1.19.13,6.33,6.33,0,0,1,1.16.39,6.75,6.75,0,0,1,1.11.66l-.89,1.25a5.52,5.52,0,0,0-1.29-.71,3.8,3.8,0,0,0-1.28-.23,3,3,0,0,0-1.79.46,1.53,1.53,0,0,0-.64,1.3h0a1.22,1.22,0,0,0,.33.91,1.9,1.9,0,0,0,.82.49,11.13,11.13,0,0,0,1.37.33l.06,0H111l.08,0a9.41,9.41,0,0,1,1.71.49,2.65,2.65,0,0,1,1.15.93,3,3,0,0,1,.46,1.74v0a2.94,2.94,0,0,1-1.9,2.88,6,6,0,0,1-2.24.38A7,7,0,0,1,108.73,21.22Z" transform="translate(-1.16 -0.56)"/></g></svg>