<svg xmlns="http://www.w3.org/2000/svg" xmlns:xlink="http://www.w3.org/1999/xlink" version="1.1" width="256" height="256" viewBox="0 0 256 256" xml:space="preserve">
<desc>Created with Fabric.js 1.7.22</desc>
<defs>
</defs>
<g transform="translate(128 128) scale(0.72 0.72)" style="">
	<g style="stroke: none; stroke-width: 0; stroke-dasharray: none; stroke-linecap: butt; stroke-linejoin: miter; stroke-miterlimit: 10; fill: none; fill-rule: nonzero; opacity: 1;" transform="translate(-175.05 -175.05000000000004) scale(3.89 3.89)" >
	<path d="M 69.177 65.823 c -11.481 0 -20.822 -9.341 -20.822 -20.823 c 0 -11.482 9.341 -20.823 20.822 -20.823 C 80.659 24.177 90 33.518 90 45 C 90 56.482 80.659 65.823 69.177 65.823 z M 69.177 26.177 c -10.379 0 -18.822 8.444 -18.822 18.823 s 8.443 18.823 18.822 18.823 S 88 55.379 88 45 S 79.556 26.177 69.177 26.177 z" style="stroke: none; stroke-width: 1; stroke-dasharray: none; stroke-linecap: butt; stroke-linejoin: miter; stroke-miterlimit: 10; fill: rgb(0,0,0); fill-rule: nonzero; opacity: 1;" transform=" matrix(1 0 0 1 0 0) " stroke-linecap="round" />
	<path d="M 20.823 56.812 c -0.656 0 -1.312 -0.169 -1.897 -0.507 l -6.944 -4.01 c -1.17 -0.676 -1.896 -1.935 -1.896 -3.285 v -8.019 c 0 -1.351 0.727 -2.61 1.896 -3.286 l 6.944 -4.009 c 1.17 -0.676 2.625 -0.676 3.794 0 l 6.944 4.009 c 1.17 0.675 1.897 1.935 1.897 3.286 v 8.019 c 0 1.351 -0.727 2.609 -1.897 3.285 l -6.944 4.01 C 22.135 56.643 21.479 56.812 20.823 56.812 z M 20.823 35.188 c -0.31 0 -0.62 0.08 -0.897 0.24 l -6.944 4.01 c -0.553 0.319 -0.896 0.915 -0.896 1.553 v 8.019 c 0 0.639 0.344 1.233 0.896 1.553 l 6.944 4.01 c 0.554 0.32 1.241 0.32 1.794 0 l 6.944 -4.01 c 0.553 -0.319 0.897 -0.914 0.897 -1.553 v -8.019 c 0 -0.639 -0.344 -1.234 -0.897 -1.553 l -6.944 -4.009 C 21.443 35.268 21.133 35.188 20.823 35.188 z" style="stroke: none; stroke-width: 1; stroke-dasharray: none; stroke-linecap: butt; stroke-linejoin: miter; stroke-miterlimit: 10; fill: rgb(0,0,0); fill-rule: nonzero; opacity: 1;" transform=" matrix(1 0 0 1 0 0) " stroke-linecap="round" />
	<path d="M 20.823 65.823 C 9.341 65.823 0 56.482 0 45 c 0 -11.482 9.341 -20.823 20.823 -20.823 S 41.646 33.518 41.646 45 C 41.646 56.482 32.305 65.823 20.823 65.823 z M 20.823 26.177 C 10.444 26.177 2 34.621 2 45 s 8.444 18.823 18.823 18.823 c 10.379 0 18.823 -8.444 18.823 -18.823 S 31.202 26.177 20.823 26.177 z" style="stroke: none; stroke-width: 1; stroke-dasharray: none; stroke-linecap: butt; stroke-linejoin: miter; stroke-miterlimit: 10; fill: rgb(0,0,0); fill-rule: nonzero; opacity: 1;" transform=" matrix(1 0 0 1 0 0) " stroke-linecap="round" />
	<path d="M 65.333 19.923 c -0.256 0 -0.512 -0.098 -0.707 -0.293 c -10.822 -10.822 -28.431 -10.822 -39.252 0 c -0.391 0.391 -1.023 0.391 -1.414 0 s -0.391 -1.023 0 -1.414 c 11.603 -11.603 30.479 -11.601 42.081 0 c 0.391 0.391 0.391 1.023 0 1.414 C 65.845 19.825 65.589 19.923 65.333 19.923 z" style="stroke: none; stroke-width: 1; stroke-dasharray: none; stroke-linecap: butt; stroke-linejoin: miter; stroke-miterlimit: 10; fill: rgb(0,0,0); fill-rule: nonzero; opacity: 1;" transform=" matrix(1 0 0 1 0 0) " stroke-linecap="round" />
	<path d="M 59.74 20.5 c -0.507 0 -0.94 -0.383 -0.994 -0.897 c -0.057 -0.549 0.343 -1.041 0.893 -1.097 l 4.597 -0.474 l -0.474 -4.597 c -0.057 -0.549 0.343 -1.041 0.893 -1.097 c 0.556 -0.069 1.04 0.343 1.098 0.892 l 0.576 5.592 c 0.057 0.549 -0.343 1.041 -0.893 1.097 l -5.592 0.577 C 59.809 20.498 59.774 20.5 59.74 20.5 z" style="stroke: none; stroke-width: 1; stroke-dasharray: none; stroke-linecap: butt; stroke-linejoin: miter; stroke-miterlimit: 10; fill: rgb(0,0,0); fill-rule: nonzero; opacity: 1;" transform=" matrix(1 0 0 1 0 0) " stroke-linecap="round" />
	<path d="M 45 80.485 c -7.62 0 -15.24 -2.9 -21.041 -8.701 c -0.391 -0.391 -0.391 -1.023 0 -1.414 s 1.023 -0.391 1.414 0 c 10.822 10.822 28.43 10.822 39.252 0 c 0.391 -0.391 1.023 -0.391 1.414 0 s 0.391 1.023 0 1.414 C 60.239 77.585 52.62 80.485 45 80.485 z" style="stroke: none; stroke-width: 1; stroke-dasharray: none; stroke-linecap: butt; stroke-linejoin: miter; stroke-miterlimit: 10; fill: rgb(0,0,0); fill-rule: nonzero; opacity: 1;" transform=" matrix(1 0 0 1 0 0) " stroke-linecap="round" />
	<path d="M 25.242 77.669 c -0.506 0 -0.941 -0.383 -0.994 -0.897 l -0.576 -5.592 c -0.027 -0.264 0.051 -0.527 0.219 -0.733 s 0.41 -0.337 0.673 -0.364 l 5.592 -0.576 c 0.548 -0.046 1.041 0.343 1.097 0.893 c 0.057 0.55 -0.343 1.041 -0.892 1.098 l -4.598 0.474 l 0.474 4.597 c 0.057 0.55 -0.343 1.041 -0.892 1.098 C 25.311 77.667 25.276 77.669 25.242 77.669 z" style="stroke: none; stroke-width: 1; stroke-dasharray: none; stroke-linecap: butt; stroke-linejoin: miter; stroke-miterlimit: 10; fill: rgb(0,0,0); fill-rule: nonzero; opacity: 1;" transform=" matrix(1 0 0 1 0 0) " stroke-linecap="round" />
	<path d="M 69.176 50.519 c -0.162 0 -0.327 -0.039 -0.479 -0.123 l -7.049 -3.865 c -0.238 -0.13 -0.413 -0.353 -0.484 -0.615 s -0.033 -0.542 0.106 -0.775 l 7.049 -11.774 c 0.284 -0.474 0.898 -0.628 1.372 -0.344 s 0.628 0.898 0.345 1.372 L 63.52 45.276 l 6.138 3.365 c 0.484 0.266 0.662 0.873 0.396 1.357 C 69.872 50.331 69.529 50.519 69.176 50.519 z" style="stroke: none; stroke-width: 1; stroke-dasharray: none; stroke-linecap: butt; stroke-linejoin: miter; stroke-miterlimit: 10; fill: rgb(0,0,0); fill-rule: nonzero; opacity: 1;" transform=" matrix(1 0 0 1 0 0) " stroke-linecap="round" />
	<path d="M 69.178 50.519 c -0.354 0 -0.696 -0.188 -0.878 -0.52 c -0.266 -0.484 -0.088 -1.092 0.396 -1.357 l 6.138 -3.365 l -6.516 -10.883 c -0.283 -0.474 -0.129 -1.088 0.345 -1.372 c 0.475 -0.284 1.089 -0.13 1.372 0.344 l 7.049 11.774 c 0.14 0.233 0.178 0.513 0.106 0.775 s -0.246 0.485 -0.484 0.615 l -7.049 3.865 C 69.505 50.479 69.34 50.519 69.178 50.519 z" style="stroke: none; stroke-width: 1; stroke-dasharray: none; stroke-linecap: butt; stroke-linejoin: miter; stroke-miterlimit: 10; fill: rgb(0,0,0); fill-rule: nonzero; opacity: 1;" transform=" matrix(1 0 0 1 0 0) " stroke-linecap="round" />
	<path d="M 69.177 57.12 c -0.333 0 -0.644 -0.165 -0.829 -0.441 l -7.049 -10.466 c -0.309 -0.458 -0.188 -1.08 0.271 -1.389 c 0.456 -0.308 1.08 -0.187 1.388 0.271 l 6.22 9.235 l 6.22 -9.235 c 0.308 -0.458 0.931 -0.579 1.388 -0.271 c 0.458 0.309 0.579 0.93 0.271 1.389 l -7.049 10.466 C 69.82 56.955 69.51 57.12 69.177 57.12 z" style="stroke: none; stroke-width: 1; stroke-dasharray: none; stroke-linecap: butt; stroke-linejoin: miter; stroke-miterlimit: 10; fill: rgb(0,0,0); fill-rule: nonzero; opacity: 1;" transform=" matrix(1 0 0 1 0 0) " stroke-linecap="round" />
</g>
</g>
</svg>